<?xml version="1.0" encoding="utf-8"?>
<!-- Generator: Adobe Illustrator 21.1.0, SVG Export Plug-In . SVG Version: 6.00 Build 0)  -->
<svg version="1.1" xmlns="http://www.w3.org/2000/svg" xmlns:xlink="http://www.w3.org/1999/xlink" x="0px" y="0px"
	 viewBox="0 0 353.7 94.7" style="enable-background:new 0 0 353.7 94.7;" xml:space="preserve">
<style type="text/css">
	.st0{fill:#FCB914;}
	.st1{fill:#FFFFFF;}
</style>
<g id="logo">
</g>
<g id="brandmark">
	<g>
		<g>
			<polygon class="st0" points="65,67.3 74.3,67.3 68.2,42.6 60.8,50.2 			"/>
			<polygon class="st0" points="76.9,31.5 79.4,17 65.3,19.9 67.8,22.4 47.4,43.9 30.1,26 20.2,67.3 29.4,67.3 34.9,44.4 47.4,58.1 
				74.3,28.9 			"/>
			<g>
				<path class="st1" d="M87.9,29.2c-1.7,0.6-2.5,2.4-1.9,4.1c1.7,4.5,2.5,9.2,2.5,14.1c0,22.6-18.4,40.9-41,40.9
					c-22.6,0-41-18.4-41-40.9s18.3-41,41-41c5.5,0,10.8,1,15.8,3.1c1.7,0.6,3.5-0.1,4.2-1.8c0.6-1.7-0.1-3.5-1.8-4.2
					C59.9,1.2,53.7,0,47.4,0C21.3,0,0,21.3,0,47.4s21.3,47.4,47.4,47.4s47.4-21.3,47.4-47.4c0-5.6-0.9-11.1-2.9-16.3
					C91.4,29.5,89.6,28.6,87.9,29.2z"/>
				<path class="st1" d="M162.9,33.5c-4.8,0-9.2,1.5-12.5,6.8c-2.1-5.1-6.6-7-11.1-7c-3.5,0-7.9,1.4-9.8,5.1l-0.6-4.5h-8.5v37.4h9.3
					v-20c0-4.9,3-9.4,8-9.4c5.1,0,7.7,4.5,7.7,9.4v20h9.3v-20c0-4.9,3.1-9.3,8.1-9.3c5,0,7,4.2,7,9.1v20.2h9.3v-20
					C178.8,40,173.5,33.5,162.9,33.5z"/>
				<path class="st1" d="M214.6,39.2c-2.1-3.7-6.9-6-11.9-6c-10.9-0.1-19.5,6.7-19.5,19.6c0,13.1,8.2,20,19.3,19.9
					c4.2-0.1,10-2.2,12.2-6.6l0.5,5.5h8.7V34h-8.9L214.6,39.2z M203.4,64c-6.1,0-11.1-4.3-11.1-11.3c0-7.2,4.9-11.3,11.1-11.3
					C218,41.4,218,64,203.4,64z"/>
				<path class="st1" d="M257.6,53.1c0,5.7-3.9,10.5-9.5,10.5c-5.9,0-9-4.3-9-10V34h-9.3v19.6c0,11.6,6.6,18.3,15.5,18.3
					c5.2,0,8.8-1.9,12.7-5.6l0.6,5.1h8.3V34h-9.2L257.6,53.1L257.6,53.1z"/>
				<path class="st1" d="M292.7,63.5c-2.9,0-4.8-1.8-4.8-5.3V42.1h10.4v-8H288V23.5l-9.3,1v9.7h-7v8h7v16.1
					c0,9.3,5.3,13.9,13.4,13.6c2.8-0.1,5-0.6,7.7-1.6l-2.6-7.9C295.9,63,294.2,63.5,292.7,63.5z"/>
				<path class="st1" d="M304.4,23.5c0,7.2,10.9,7.2,10.9,0C315.3,16.3,304.4,16.3,304.4,23.5z"/>
				<rect x="305.3" y="33.9" class="st1" width="9.3" height="37.5"/>
				<path class="st1" d="M347.5,60.5c-2.3,2.2-5.2,3.1-8.2,3.1c-5.8,0-10.7-3.8-10.7-10.9c0-6.5,4.5-11.1,10.8-11.1
					c2.6,0,5.3,1,7.5,3l5.9-6.1c-4.1-4-8.2-5.6-13.6-5.6c-10.9,0-19.9,6.5-19.9,19.8s9.1,19.8,20,19.8c5.6,0,10.1-1.7,14.4-5.9
					L347.5,60.5z"/>
			</g>
		</g>
	</g>
</g>
</svg>
